<mxfile host="app.diagrams.net" modified="2024-04-07T09:42:43.016Z" agent="Mozilla/5.0 (Windows NT 10.0; Win64; x64) AppleWebKit/537.36 (KHTML, like Gecko) Chrome/122.0.0.0 Safari/537.36 OPR/108.0.0.0" etag="G7WCXlnZf2BNe8W1vDb4" version="24.2.2" type="github">
  <diagram name="Page-1" id="EPTYFsj7gvNVbEP64Hd6">
    <mxGraphModel dx="996" dy="559" grid="1" gridSize="10" guides="1" tooltips="1" connect="1" arrows="1" fold="1" page="1" pageScale="1" pageWidth="850" pageHeight="1100" math="0" shadow="0">
      <root>
        <mxCell id="0" />
        <mxCell id="1" parent="0" />
        <mxCell id="yrQwyQiWfFwoMr_2Wm6h-2" value="" style="ellipse;html=1;shape=startState;fillColor=#000000;strokeColor=#ff0000;" vertex="1" parent="1">
          <mxGeometry x="150" y="10" width="30" height="30" as="geometry" />
        </mxCell>
        <mxCell id="yrQwyQiWfFwoMr_2Wm6h-3" value="" style="edgeStyle=orthogonalEdgeStyle;html=1;verticalAlign=bottom;endArrow=open;endSize=8;strokeColor=#ff0000;rounded=0;" edge="1" source="yrQwyQiWfFwoMr_2Wm6h-2" parent="1">
          <mxGeometry relative="1" as="geometry">
            <mxPoint x="165" y="100" as="targetPoint" />
          </mxGeometry>
        </mxCell>
        <mxCell id="yrQwyQiWfFwoMr_2Wm6h-4" value="Check authentication" style="rounded=1;whiteSpace=wrap;html=1;arcSize=40;fontColor=#000000;fillColor=#ffffc0;strokeColor=#ff0000;" vertex="1" parent="1">
          <mxGeometry x="105" y="100" width="120" height="40" as="geometry" />
        </mxCell>
        <mxCell id="yrQwyQiWfFwoMr_2Wm6h-5" value="" style="edgeStyle=orthogonalEdgeStyle;html=1;verticalAlign=bottom;endArrow=open;endSize=8;strokeColor=#ff0000;rounded=0;" edge="1" source="yrQwyQiWfFwoMr_2Wm6h-4" parent="1">
          <mxGeometry relative="1" as="geometry">
            <mxPoint x="165" y="200" as="targetPoint" />
          </mxGeometry>
        </mxCell>
        <mxCell id="yrQwyQiWfFwoMr_2Wm6h-6" value="Authenticated" style="rhombus;whiteSpace=wrap;html=1;fontColor=#000000;fillColor=#ffffc0;strokeColor=#ff0000;" vertex="1" parent="1">
          <mxGeometry x="125" y="200" width="80" height="40" as="geometry" />
        </mxCell>
        <mxCell id="yrQwyQiWfFwoMr_2Wm6h-8" value="yes" style="edgeStyle=orthogonalEdgeStyle;html=1;align=left;verticalAlign=top;endArrow=open;endSize=8;strokeColor=#ff0000;rounded=0;" edge="1" source="yrQwyQiWfFwoMr_2Wm6h-6" parent="1">
          <mxGeometry x="-1" relative="1" as="geometry">
            <mxPoint x="160" y="300" as="targetPoint" />
          </mxGeometry>
        </mxCell>
        <mxCell id="yrQwyQiWfFwoMr_2Wm6h-13" value="" style="edgeStyle=orthogonalEdgeStyle;html=1;align=left;verticalAlign=bottom;endArrow=none;endSize=8;strokeColor=#ff0000;rounded=0;endFill=0;" edge="1" parent="1" source="yrQwyQiWfFwoMr_2Wm6h-6" target="yrQwyQiWfFwoMr_2Wm6h-12">
          <mxGeometry x="-1" relative="1" as="geometry">
            <mxPoint x="270" y="220" as="targetPoint" />
            <mxPoint x="205" y="220" as="sourcePoint" />
          </mxGeometry>
        </mxCell>
        <mxCell id="yrQwyQiWfFwoMr_2Wm6h-12" value="" style="ellipse;html=1;shape=endState;fillColor=#000000;strokeColor=#ff0000;" vertex="1" parent="1">
          <mxGeometry x="250" y="205" width="30" height="30" as="geometry" />
        </mxCell>
        <mxCell id="yrQwyQiWfFwoMr_2Wm6h-14" value="Display a select action screen with current details" style="rounded=1;whiteSpace=wrap;html=1;arcSize=40;fontColor=#000000;fillColor=#ffffc0;strokeColor=#ff0000;" vertex="1" parent="1">
          <mxGeometry x="105" y="300" width="120" height="40" as="geometry" />
        </mxCell>
        <mxCell id="yrQwyQiWfFwoMr_2Wm6h-15" value="" style="edgeStyle=orthogonalEdgeStyle;html=1;verticalAlign=bottom;endArrow=open;endSize=8;strokeColor=#ff0000;rounded=0;entryX=0;entryY=0.5;entryDx=0;entryDy=0;" edge="1" source="yrQwyQiWfFwoMr_2Wm6h-14" parent="1" target="yrQwyQiWfFwoMr_2Wm6h-18">
          <mxGeometry relative="1" as="geometry">
            <mxPoint x="165" y="400" as="targetPoint" />
          </mxGeometry>
        </mxCell>
        <mxCell id="yrQwyQiWfFwoMr_2Wm6h-16" value="Show details" style="rounded=1;whiteSpace=wrap;html=1;arcSize=40;fontColor=#000000;fillColor=#ffffc0;strokeColor=#ff0000;" vertex="1" parent="1">
          <mxGeometry x="290" y="500" width="120" height="40" as="geometry" />
        </mxCell>
        <mxCell id="yrQwyQiWfFwoMr_2Wm6h-33" style="edgeStyle=orthogonalEdgeStyle;rounded=0;orthogonalLoop=1;jettySize=auto;html=1;entryX=0;entryY=0.5;entryDx=0;entryDy=0;" edge="1" parent="1" source="yrQwyQiWfFwoMr_2Wm6h-18" target="yrQwyQiWfFwoMr_2Wm6h-31">
          <mxGeometry relative="1" as="geometry" />
        </mxCell>
        <mxCell id="yrQwyQiWfFwoMr_2Wm6h-18" value="Action" style="rhombus;whiteSpace=wrap;html=1;fontColor=#000000;fillColor=#ffffc0;strokeColor=#ff0000;" vertex="1" parent="1">
          <mxGeometry x="310" y="400" width="80" height="40" as="geometry" />
        </mxCell>
        <mxCell id="yrQwyQiWfFwoMr_2Wm6h-19" value="no" style="edgeStyle=orthogonalEdgeStyle;html=1;align=left;verticalAlign=bottom;endArrow=open;endSize=8;strokeColor=#ff0000;rounded=0;" edge="1" source="yrQwyQiWfFwoMr_2Wm6h-18" parent="1">
          <mxGeometry x="-1" relative="1" as="geometry">
            <mxPoint x="490" y="420" as="targetPoint" />
          </mxGeometry>
        </mxCell>
        <mxCell id="yrQwyQiWfFwoMr_2Wm6h-20" value="yes" style="edgeStyle=orthogonalEdgeStyle;html=1;align=left;verticalAlign=top;endArrow=open;endSize=8;strokeColor=#ff0000;rounded=0;" edge="1" source="yrQwyQiWfFwoMr_2Wm6h-18" parent="1">
          <mxGeometry x="-1" relative="1" as="geometry">
            <mxPoint x="350" y="500" as="targetPoint" />
          </mxGeometry>
        </mxCell>
        <mxCell id="yrQwyQiWfFwoMr_2Wm6h-21" value="Prompt for update" style="rounded=1;whiteSpace=wrap;html=1;arcSize=40;fontColor=#000000;fillColor=#ffffc0;strokeColor=#ff0000;" vertex="1" parent="1">
          <mxGeometry x="490" y="400" width="120" height="40" as="geometry" />
        </mxCell>
        <mxCell id="yrQwyQiWfFwoMr_2Wm6h-22" value="" style="edgeStyle=orthogonalEdgeStyle;html=1;verticalAlign=bottom;endArrow=open;endSize=8;strokeColor=#ff0000;rounded=0;" edge="1" source="yrQwyQiWfFwoMr_2Wm6h-21" parent="1">
          <mxGeometry relative="1" as="geometry">
            <mxPoint x="550" y="500" as="targetPoint" />
          </mxGeometry>
        </mxCell>
        <mxCell id="yrQwyQiWfFwoMr_2Wm6h-23" value="Update and return response" style="rounded=1;whiteSpace=wrap;html=1;arcSize=40;fontColor=#000000;fillColor=#ffffc0;strokeColor=#ff0000;" vertex="1" parent="1">
          <mxGeometry x="490" y="500" width="120" height="40" as="geometry" />
        </mxCell>
        <mxCell id="yrQwyQiWfFwoMr_2Wm6h-26" value="" style="edgeStyle=orthogonalEdgeStyle;html=1;verticalAlign=bottom;endArrow=none;endSize=8;strokeColor=#ff0000;rounded=0;endFill=0;" edge="1" parent="1" source="yrQwyQiWfFwoMr_2Wm6h-23" target="yrQwyQiWfFwoMr_2Wm6h-25">
          <mxGeometry relative="1" as="geometry">
            <mxPoint x="550" y="600" as="targetPoint" />
            <mxPoint x="550" y="540" as="sourcePoint" />
          </mxGeometry>
        </mxCell>
        <mxCell id="yrQwyQiWfFwoMr_2Wm6h-25" value="" style="ellipse;html=1;shape=endState;fillColor=#000000;strokeColor=#ff0000;" vertex="1" parent="1">
          <mxGeometry x="535" y="580" width="30" height="30" as="geometry" />
        </mxCell>
        <mxCell id="yrQwyQiWfFwoMr_2Wm6h-29" value="" style="edgeStyle=orthogonalEdgeStyle;rounded=0;orthogonalLoop=1;jettySize=auto;html=1;strokeColor=#D73737;endArrow=none;endFill=0;" edge="1" parent="1" source="yrQwyQiWfFwoMr_2Wm6h-16" target="yrQwyQiWfFwoMr_2Wm6h-30">
          <mxGeometry relative="1" as="geometry">
            <mxPoint x="350" y="540" as="sourcePoint" />
            <mxPoint x="350" y="640" as="targetPoint" />
          </mxGeometry>
        </mxCell>
        <mxCell id="yrQwyQiWfFwoMr_2Wm6h-30" value="" style="ellipse;html=1;shape=endState;fillColor=#000000;strokeColor=#ff0000;" vertex="1" parent="1">
          <mxGeometry x="335" y="605" width="30" height="30" as="geometry" />
        </mxCell>
        <mxCell id="yrQwyQiWfFwoMr_2Wm6h-31" value="Prompt for enter information about delete" style="rounded=1;whiteSpace=wrap;html=1;arcSize=40;fontColor=#000000;fillColor=#ffffc0;strokeColor=#ff0000;" vertex="1" parent="1">
          <mxGeometry x="360" y="240" width="120" height="40" as="geometry" />
        </mxCell>
        <mxCell id="yrQwyQiWfFwoMr_2Wm6h-32" value="" style="edgeStyle=orthogonalEdgeStyle;html=1;verticalAlign=bottom;endArrow=open;endSize=8;strokeColor=#ff0000;rounded=0;" edge="1" source="yrQwyQiWfFwoMr_2Wm6h-31" parent="1" target="yrQwyQiWfFwoMr_2Wm6h-34">
          <mxGeometry relative="1" as="geometry">
            <mxPoint x="420" y="340" as="targetPoint" />
          </mxGeometry>
        </mxCell>
        <mxCell id="yrQwyQiWfFwoMr_2Wm6h-42" style="edgeStyle=orthogonalEdgeStyle;rounded=0;orthogonalLoop=1;jettySize=auto;html=1;entryX=0;entryY=0.5;entryDx=0;entryDy=0;" edge="1" parent="1" source="yrQwyQiWfFwoMr_2Wm6h-34" target="yrQwyQiWfFwoMr_2Wm6h-39">
          <mxGeometry relative="1" as="geometry" />
        </mxCell>
        <mxCell id="yrQwyQiWfFwoMr_2Wm6h-34" value="Confirm" style="rounded=1;whiteSpace=wrap;html=1;arcSize=40;fontColor=#000000;fillColor=#ffffc0;strokeColor=#ff0000;" vertex="1" parent="1">
          <mxGeometry x="580" y="235" width="120" height="40" as="geometry" />
        </mxCell>
        <mxCell id="yrQwyQiWfFwoMr_2Wm6h-36" value="Delete and show response" style="rounded=1;whiteSpace=wrap;html=1;arcSize=40;fontColor=#000000;fillColor=#ffffc0;strokeColor=#ff0000;" vertex="1" parent="1">
          <mxGeometry x="710" y="360" width="120" height="40" as="geometry" />
        </mxCell>
        <mxCell id="yrQwyQiWfFwoMr_2Wm6h-37" value="" style="edgeStyle=orthogonalEdgeStyle;html=1;verticalAlign=bottom;endArrow=none;endSize=8;strokeColor=#ff0000;rounded=0;endFill=0;" edge="1" source="yrQwyQiWfFwoMr_2Wm6h-36" parent="1" target="yrQwyQiWfFwoMr_2Wm6h-38">
          <mxGeometry relative="1" as="geometry">
            <mxPoint x="770" y="460" as="targetPoint" />
          </mxGeometry>
        </mxCell>
        <mxCell id="yrQwyQiWfFwoMr_2Wm6h-38" value="" style="ellipse;html=1;shape=endState;fillColor=#000000;strokeColor=#ff0000;" vertex="1" parent="1">
          <mxGeometry x="755" y="445" width="30" height="30" as="geometry" />
        </mxCell>
        <mxCell id="yrQwyQiWfFwoMr_2Wm6h-39" value="confirmed" style="rhombus;whiteSpace=wrap;html=1;fontColor=#000000;fillColor=#ffffc0;strokeColor=#ff0000;" vertex="1" parent="1">
          <mxGeometry x="730" y="235" width="80" height="40" as="geometry" />
        </mxCell>
        <mxCell id="yrQwyQiWfFwoMr_2Wm6h-40" value="no" style="edgeStyle=orthogonalEdgeStyle;html=1;align=left;verticalAlign=bottom;endArrow=open;endSize=8;strokeColor=#ff0000;rounded=0;entryX=1;entryY=0;entryDx=0;entryDy=0;" edge="1" source="yrQwyQiWfFwoMr_2Wm6h-39" parent="1" target="yrQwyQiWfFwoMr_2Wm6h-14">
          <mxGeometry x="-1" relative="1" as="geometry">
            <mxPoint x="910" y="255" as="targetPoint" />
            <Array as="points">
              <mxPoint x="770" y="170" />
              <mxPoint x="310" y="170" />
              <mxPoint x="310" y="300" />
            </Array>
          </mxGeometry>
        </mxCell>
        <mxCell id="yrQwyQiWfFwoMr_2Wm6h-41" value="yes" style="edgeStyle=orthogonalEdgeStyle;html=1;align=left;verticalAlign=top;endArrow=open;endSize=8;strokeColor=#ff0000;rounded=0;" edge="1" source="yrQwyQiWfFwoMr_2Wm6h-39" parent="1" target="yrQwyQiWfFwoMr_2Wm6h-36">
          <mxGeometry x="-1" relative="1" as="geometry">
            <mxPoint x="770" y="335" as="targetPoint" />
          </mxGeometry>
        </mxCell>
      </root>
    </mxGraphModel>
  </diagram>
</mxfile>
